PathFileType	4	(X/Y/Z)	S240501-1155_P07_T01_0-394.trc
DataRate	CameraRate	NumFrames	NumMarkers	Units	OrigDataRate	OrigDataStartFrame	OrigNumFrames
60	60	10	13	m	60	197	394
Frame#	Time	Nose			LEye			LEar			LShoulder			LElbow			LWrist			LHip			REye			REar			RShoulder			RElbow			RWrist			RHip		
		X1	Y1	Z1	X2	Y2	Z2	X3	Y3	Z3	X4	Y4	Z4	X5	Y5	Z5	X6	Y6	Z6	X7	Y7	Z7	X8	Y8	Z8	X9	Y9	Z9	X10	Y10	Z10	X11	Y11	Z11	X12	Y12	Z12	X13	Y13	Z13
198	3.3	-0.06620132819684924	1.6863241283697847	0.15921633499282736	-0.09183299464381578	1.6507459265070357	0.18418600895853937	-0.05812801626160498	1.5962898020232534	0.2774880232481154	0.1089744574943132	1.5209012043055787	0.24613546052971952	0.25475969063948867	1.5487262059142572	0.04887528744644645	0.31413170591799694	1.6117389366506991	-0.16985670439586448	0.5228267374140028	1.6095514846881847	0.2240288865213393	-0.09245144566146267	1.7155211477141383	0.18542732390631894	-0.06566016757097211	1.7578563773246576	0.2835475461712714	0.10703051038374442	1.8438001655092262	0.3228229409132485	0.33535946536223604	1.933404101635564	0.26504457657904745	0.3233283272786392	1.9030360527979955	0.0481049994900699	0.5321118885296794	1.8223007044660815	0.23977916381713665
199	3.316666666666667	-0.06730682177153395	1.6854120680885465	0.15936972649388062	-0.09177061001559493	1.6499318640640375	0.18413727256968113	-0.059280378925943226	1.5951500444975442	0.2779835843797677	0.11030640053845642	1.5195016042446796	0.24620094502998946	0.2550166611302942	1.5470427693185964	0.048409726688329754	0.31469506433050837	1.612750692821289	-0.1701559201008754	0.5191791028068664	1.6051469936773206	0.22767272477227385	-0.09216935757857833	1.7151242089392273	0.18536894254268263	-0.0649545952365076	1.7577890579402813	0.2835492645305598	0.10695564768286848	1.8410437312562178	0.3219293326229267	0.3287829427712596	1.9296676880104031	0.2652226613893151	0.32391219844919983	1.9030127661654506	0.04736129370379063	0.5333515065442499	1.8207928785872771	0.2425472120705013
200	3.3333333333333335	-0.0689135338431447	1.6819428639963443	0.15947883048070338	-0.09279233930926513	1.6491092369236033	0.1843493806184451	-0.05918989169119796	1.5944961246186928	0.27732742478816463	0.11026146534457948	1.5192863093633024	0.2459538597133939	0.25575661797983296	1.5468780394372388	0.048385981527054554	0.3159606232580837	1.612968349247184	-0.16661239680172385	0.5229461181663447	1.6082148080513252	0.2253954792051145	-0.09346701931938439	1.7139565536309227	0.18569955999906526	-0.06491600152777657	1.7575497382094472	0.2831533585279285	0.10688063393629818	1.840046925329431	0.32245137180030137	0.33222784732776434	1.9301672660575393	0.26657593929530604	0.32431539050373803	1.9035066866885546	0.045203458451073146	0.533227856584611	1.8217134002268542	0.23989169963580326
201	3.35	-0.07020263003308921	1.6799717150969478	0.16127501441450676	-0.09297536142998764	1.649953812617143	0.18807777670647086	-0.059314331523756876	1.5954593796114833	0.2793804946995749	0.1099251299369315	1.5195671958895403	0.2459281676647072	0.2566814053705405	1.5470569223957487	0.04777920381884499	0.3157011208053738	1.6133811751746259	-0.16699895028315392	0.5233569452463144	1.6090971353762131	0.22481073912162933	-0.09385868119379123	1.7143159615768009	0.18566849421225387	-0.06522396931105705	1.7575942015881634	0.28354441765848554	0.10653536582756416	1.8405326714096575	0.322744929501424	0.3281806152076568	1.9288228522816213	0.26601595954907836	0.3250413617586257	1.9020431954067227	0.047343931456722534	0.5304799013366487	1.8203849536910859	0.23985210483667133
202	3.3666666666666667	-0.07025211875482092	1.6797919330961237	0.16135005923933926	-0.09286288328580058	1.6490746121230437	0.19222807761216895	-0.059433362903938386	1.5948455228197047	0.27773644911600287	0.1099812122409882	1.5192970865757172	0.24617753411372043	0.2555539724268318	1.5469596933651897	0.04814839616411153	0.31685313523348424	1.6132992172496199	-0.16707131122177074	0.5228978512671393	1.608805615230689	0.22492564840856077	-0.09374530771171209	1.7135647448269034	0.18947511762401054	-0.0652926984032795	1.757372680628371	0.28381801435807036	0.10639472952039528	1.8431642229686165	0.32428693715765394	0.33227379290841635	1.930794079311264	0.26661698297245096	0.3238916249918599	1.9022487732389772	0.04811325042407165	0.5341888633457283	1.8196520220901928	0.2419199574182684
203	3.3833333333333333	-0.06962879094899645	1.680500384272773	0.16087280599591938	-0.09327892774915773	1.647350489150713	0.19362173358147264	-0.05840635687450846	1.5951167345970365	0.2771704470416534	0.10984652908517654	1.5225042030361646	0.25205738565292546	0.2566775227618508	1.5469984666835408	0.04770122891077539	0.3158134251424818	1.6116391101701666	-0.16957691970301836	0.5260063369679051	1.610582219390677	0.2247146275107055	-0.09609627200918733	1.7119777521986104	0.1907284898858465	-0.06563707277065209	1.7563387217911444	0.28481275730538586	0.10579948972296183	1.8411512597618283	0.3230829735579916	0.33136216672536645	1.933044004930193	0.2645542489306396	0.3234261731961617	1.9033803637952136	0.04605854877102649	0.5339180825476736	1.8193467707939797	0.24138883855796028
204	3.4	-0.0701571482277394	1.6794392942646954	0.16287714333474707	-0.09251575116104487	1.646434664691121	0.19515473955368953	-0.05951261220621672	1.5919277784590604	0.27984629221835483	0.11173294292581554	1.5229700977641918	0.2397922334597416	0.25690720931811944	1.549049122857868	0.05116441242462332	0.3147641044933464	1.6099078715564958	-0.1666895753800414	0.5271539072948183	1.611590806045457	0.2532718686202238	-0.0956677084274866	1.713144793494828	0.19066487954643466	-0.06518582580462136	1.7571278870960958	0.2847627588124066	0.10614479990507555	1.8426505546528904	0.32566615888755557	0.33130138805764897	1.931497476434502	0.26646758828194295	0.32386321224685666	1.9022842815585013	0.04847280415083885	0.5216412191505524	1.8286668067675107	0.2524858446019545
205	3.4166666666666665	-0.06999257287791924	1.6793843518271412	0.16437414586406782	-0.09248316798618461	1.6472276456810144	0.19249538706989575	-0.05914425486856308	1.5900062215877606	0.28239944747845214	0.11226972385049289	1.5176961259163055	0.24421598666544728	0.2562050200672751	1.5466138220439078	0.05120073551938623	0.316757164208038	1.6122899750817679	-0.1664209505406938	0.521136014440725	1.6112856545464935	0.2362569609801977	-0.0987209778227094	1.712759883814887	0.19252580119928847	-0.06736239167763848	1.7569324567238656	0.2861014958422986	0.10725995959091102	1.8430651279254924	0.3222752018652614	0.3327596531737208	1.9311099733655566	0.267836524850171	0.3246223186086438	1.9016514770338742	0.05049193783269713	0.5214545307882323	1.8307790124955685	0.25150169851227067
206	3.433333333333333	-0.06940489611035724	1.6811343821410416	0.16586420020652584	-0.09368362428014677	1.645497733039932	0.19677825335437688	-0.05957333773865234	1.5913639393842973	0.2813643831203894	0.1103031586110975	1.5209630678390231	0.24959159556021732	0.25694151968502166	1.5479458236504569	0.053057189885585436	0.3153807424533589	1.6104181216285187	-0.16493555818482245	0.5197621419542534	1.6160580154053463	0.2549686186296648	-0.09910121167477051	1.7093560542313817	0.19270202141638415	-0.0671446998930708	1.758041795783243	0.2844232440383075	0.1082565931549794	1.8418013836200424	0.3259240800422938	0.3337043499155532	1.930189659382963	0.2681387547503213	0.3244869677626805	1.9005333633388173	0.045213472122433276	0.5307342771033781	1.8207492812089756	0.24325769271032582
207	3.45	-0.06921879627421089	1.68078404235211	0.16965249625121648	-0.09372623282343272	1.6454923584531422	0.19671570227983662	-0.058195130966633056	1.593469884740632	0.2815670837706174	0.11264001623037781	1.522592070688391	0.24407052545084795	0.2569010917377062	1.5477685209329743	0.0532009889495187	0.3162314302952791	1.6098700118017901	-0.16035369779119718	0.5632284065221129	1.6160555004775297	0.140666664739455	-0.0988648165484808	1.7074650655335248	0.1939880783068811	-0.06688632435435951	1.755819024472984	0.2885402343022278	0.10712475955048988	1.8425673089740784	0.32471157050108435	0.33035698556064635	1.9311668735637022	0.2672155786824449	0.323475696299554	1.9033150995315897	0.04328361283513768	0.5283211065653104	1.8191839240882517	0.23232592175705236
